<svg xmlns="http://www.w3.org/2000/svg" viewBox="0 0 418.77 184.01"><defs><style>.cls-1{fill:#db802d;fill-rule:evenodd;}</style></defs><title>cor_fundoescuro</title><g id="Camada_2" data-name="Camada 2"><g id="Layer_1" data-name="Layer 1"><path class="cls-1" d="M0,159.68,4.39,74.79H15.48l-4.35,84.89ZM326.74,0a92,92,0,0,1,75.9,144l-8.13-27.21,13.84-42.19H398.19l-13.84,42.69V118l10.27,36.09a91.92,91.92,0,0,1-130.36,5.42h.42l3.93-74.61h10.63l.46-10.27H247.31l-.46,10.27h10.63l-3.32,63.59A91.54,91.54,0,0,1,234.76,92c0-2.31.11-4.63.25-6.91h-7.78l-3.88,74.61H212.22l3.89-74.61H205.48l.46-10.28h30.42A92.05,92.05,0,0,1,326.74,0ZM45.87,124.69l12.91-49.9H71.05L66.7,159.68H55.57l4-55.57-10.42,40.2H40.66l-6.38-40.2-1.64,55.57H21.51l4.38-84.89H38.2Zm35.59-49.9h20.23q13.47,0,12.77,14.56l-1.32,25.18c-.54,9.59-5.28,14.41-14.16,14.41H89.74L88.2,159.68H77.08Zm8.88,43.87h7.07c2.92,0,4.45-1.67,4.63-5l1.29-23.65c.18-3.32-1.43-5-4.71-5H92.09Zm39.7,41H119l3.67-70.33c.47-9.71,5.14-14.56,14.06-14.56H145q13.38,0,12.66,14.56l-3.67,70.33H142.81l1.53-31.1H131.58ZM145,118.31l1.53-28.25c.18-3.32-1.39-5-4.6-5h-3.06c-3.25,0-4.93,1.67-5.1,5l-1.54,28.25ZM198,139.81l-.35,5.46c-.47,9.6-5.14,14.41-14.06,14.41h-7.09q-13.38,0-12.67-14.41l3-56.07c.47-9.59,5.18-14.41,14.09-14.41H188c8.88,0,13.13,4.82,12.63,14.41l-.47,9.6H189l.5-8.74c.15-3.32-1.42-5-4.74-5h-2.25c-2.92,0-4.46,1.67-4.6,5l-3,54.36c-.14,3.31,1.21,5,4.14,5H182c2.89,0,4.43-1.68,4.6-5l.36-4.61Zm94.23,19.69H281.13l3.67-70.33c.46-9.7,5.17-14.55,14.05-14.55h8.28q13.37,0,12.66,14.55l-3.67,70.33H305l1.54-31.1H293.79Zm14.88-41.37,1.53-28.25c.18-3.32-1.35-5-4.6-5H301c-3.24,0-4.92,1.67-5.1,5l-1.53,28.25Zm44.12-2.5,2.1-41h11.13l-4.39,84.88H349l.82-16.9-9.95-38.67-2.82,55.57H325.92l4.39-84.88h11.13Zm30.39,43.87H370.51l4.39-84.88H386Z"/><path class="cls-1" d="M397.33,42.84a21.42,21.42,0,1,0-21.44-21.4,21.45,21.45,0,0,0,21.44,21.4Z"/></g></g></svg>